<?xml version="1.0" encoding="UTF-8"?>
<svg width="455px" height="120px" viewBox="0 0 455 120" version="1.1" xmlns="http://www.w3.org/2000/svg" xmlns:xlink="http://www.w3.org/1999/xlink">
    <!-- Generator: Sketch 51.1 (57501) - http://www.bohemiancoding.com/sketch -->
    <title>citibike</title>
    <desc>Created with Sketch.</desc>
    <defs></defs>
    <g id="Page-1" stroke="none" stroke-width="1" fill="none" fill-rule="evenodd">
        <g id="Group" fill="#FFFFFF">
            <path d="M187.32125,1.00975 C173.42625,20.700625 150.34,32.438 126.85375,32.438 C103.378875,32.438 80.288125,20.700625 66.413625,1.00975 L65.704625,0 L83.203125,0 L83.389625,0.204 C95.314,12.504875 110.861875,19.001375 126.85375,19.001375 C142.85375,19.001375 158.40125,12.504875 170.33875,0.204 L170.5325,0 L188.025,0 L187.32125,1.00975" id="path14" transform="translate(126.864812, 16.219000) scale(-1, 1) rotate(-180.000000) translate(-126.864812, -16.219000) "></path>
            <path d="M56.75875,65.7081015 L56.431625,65.3784765 C51.047375,59.9073515 44.829125,57.0019765 38.421375,57.0019765 C25.038125,57.0019765 15.330625,67.0386015 15.330625,80.8882265 C15.330625,94.7042265 25.038125,104.753977 38.421375,104.753977 C44.829125,104.753977 51.047375,101.845227 56.431625,96.3594765 L56.75875,96.0137265 L65.36525,106.430227 L65.129375,106.711977 C57.98,115.171477 49.393125,119.279352 38.833,119.279352 C28.2495,119.279352 18.565375,115.712477 11.5878875,109.280352 C4.0048875,102.323852 -7.10542736e-15,92.5093515 -7.10542736e-15,80.8882265 C-7.10542736e-15,69.2676015 4.0048875,59.4287265 11.5878875,52.4610015 C18.565375,46.0059265 28.2495,42.461 38.833,42.461 C49.393125,42.461 57.98,46.5674515 65.129375,55.0196015 L65.36525,55.2881015 L56.75875,65.7081015" id="path16" fill-rule="nonzero" transform="translate(32.682625, 80.870176) scale(-1, 1) rotate(-180.000000) translate(-32.682625, -80.870176) "></path>
            <polygon id="path18" fill-rule="nonzero" transform="translate(81.659375, 80.765213) scale(-1, 1) rotate(-180.000000) translate(-81.659375, -80.765213) " points="74.06 43.66465 89.25875 43.66465 89.25875 117.865775 74.06 117.865775"></polygon>
            <path d="M148.7975,37.927537 C144.74375,35.454412 140.96875,34.209287 137.58,34.209287 C132.6725,34.209287 130.4475,36.792287 130.4475,42.575912 L130.4475,81.941662 L145.93125,81.941662 L145.93125,95.921162 L130.4475,95.921162 L130.4475,119.014412 L115.546875,111.039787 L115.546875,95.921162 L102.704125,95.921162 L102.704125,81.941662 L115.546875,81.941662 L115.546875,40.058912 C115.546875,28.6526245 122.305625,20.8596507 132.4,20.644807 C139.25375,20.5129707 143.38125,22.561312 145.89375,24.0554495 L146.0425,24.1628745 L149.69875,38.474412 L148.7975,37.927537" id="path20" fill-rule="nonzero" transform="translate(126.201438, 69.826581) scale(-1, 1) rotate(-180.000000) translate(-126.201438, -69.826581) "></path>
            <polygon id="path22" fill-rule="nonzero" transform="translate(168.999938, 80.765213) scale(-1, 1) rotate(-180.000000) translate(-168.999938, -80.765213) " points="161.3925 43.66465 176.607375 43.66465 176.607375 117.865775 161.3925 117.865775"></polygon>
            <path d="M306.815,9.59475 C307.91875,9.59475 308.815,10.5591 308.815,11.7480625 L308.815,81.794025 C308.815,82.935025 307.95,83.7959 306.815,83.7959 L291.0975,83.7959 C289.91625,83.7959 288.9475,82.89265 288.9475,81.794025 L288.9475,11.7480625 C288.9475,10.5981625 289.9575,9.59475 291.0975,9.59475 L306.815,9.59475 Z M298.96375,117.865775 C306.0925,117.865775 311.88625,112.05865 311.88625,104.92965 C311.88625,97.7949 306.0925,91.99665 298.96375,91.99665 C291.825,91.99665 286.0175,97.7949 286.0175,104.92965 C286.0175,112.05865 291.825,117.865775 298.96375,117.865775 Z" id="path24" fill-rule="nonzero" transform="translate(298.951875, 63.730262) scale(-1, 1) rotate(-180.000000) translate(-298.951875, -63.730262) "></path>
            <path d="M339.59125,16.6275125 C339.59125,15.4849375 338.73,14.623125 337.59625,14.623125 L321.87875,14.623125 C320.69,14.623125 319.7275,15.5264375 319.7275,16.6275125 L319.7275,115.8629 C319.7275,116.9664 320.69,117.865775 321.87875,117.865775 L337.59625,117.865775 C338.73,117.865775 339.59125,117.0064 339.59125,115.8629 L339.59125,16.6275125" id="path26" fill-rule="nonzero" transform="translate(329.659375, 66.244450) scale(-1, 1) rotate(-180.000000) translate(-329.659375, -66.244450) "></path>
            <path d="M363.20875,43.664625 C361.24125,43.664625 360.255,43.7256625 359.3875,45.0782 L337.90625,79.9264 L360.08,116.150525 C361.00125,117.58265 362.2325,117.865775 364.0575,117.865775 L378.72625,117.865775 C380.2025,117.865775 380.43625,117.045525 380.43625,116.593775 C380.43625,115.910275 380.03875,115.2144 379.36,114.146025 L357.6375,81.7599 L381.01375,47.03865 C381.78125,45.9180375 382.06125,45.40535 382.06125,44.9317125 C382.06125,44.4922625 381.96375,43.664625 380.3425,43.664625 L363.20875,43.664625" id="path28" fill-rule="nonzero" transform="translate(359.983750, 80.765200) scale(-1, 1) rotate(-180.000000) translate(-359.983750, -80.765200) "></path>
            <path d="M377.8575,80.352125 C377.8575,102.021 392.70125,119.294 413.54125,119.294 C435.04875,119.294 447.2925,100.851625 447.2925,83.131875 L447.2925,79.47225 C447.2925,76.946375 446.05125,76.59375 444.70875,76.59375 L397.23875,76.59375 C397.8825,66.65525 404.9275,59.580125 414.2225,59.580125 C420.2075,59.580125 425.545,62.71975 429.705,68.0005 C430.5375,68.974625 431.43125,70.214875 432.55125,70.214875 C432.99375,70.214875 433.71875,70.0855 434.31125,69.6875 L444.49,63.2105 C445.48125,62.63675 446.085,61.9825 446.085,61.211 C446.085,60.7495 445.84625,60.185625 445.48125,59.455625 C439.70125,48.513225 427.43125,42.439 413.9375,42.439 C391.75,42.439 377.8575,59.2725 377.8575,80.352125 M397.345,89.298875 L430.46875,89.298875 C429.0575,98.715375 421.5875,103.8985 413.9175,103.8985 C406.2225,103.8985 398.75,98.715375 397.345,89.298875" id="path30" fill-rule="nonzero" transform="translate(412.575000, 80.866500) scale(-1, 1) rotate(-180.000000) translate(-412.575000, -80.866500) "></path>
            <path d="M242.98375,32.279375 C233.13125,32.279375 225.11875,41.520125 225.11875,52.872125 C225.11875,64.2345 233.13125,73.464 242.98375,73.464 C252.83875,73.464 260.8475,64.2345 260.8475,52.872125 C260.8475,41.520125 252.83875,32.279375 242.98375,32.279375 Z M244.745,91.478125 C236.5875,91.478125 229.53625,88.88875 225.58875,84.756875 L225.58875,117.291125 C225.58875,118.488375 224.5575,119.294 223.585,119.294 L208.01875,119.294 C206.8725,119.294 206.01625,118.434625 206.01625,117.291125 L206.01625,18.0557375 C206.01625,16.9131625 206.8725,16.05135 208.01875,16.05135 L223.57375,16.05135 C224.72125,16.05135 225.5775,16.9131625 225.5775,18.0557375 L225.58875,20.8755625 C229.76125,16.2735125 238.14,14.623125 244.59375,14.623125 C263.88375,14.623125 280.80375,29.405875 280.80375,53.26525 C280.80375,77.132375 263.88375,91.478125 244.745,91.478125 Z" id="path32" fill-rule="nonzero" transform="translate(243.410000, 66.958562) scale(-1, 1) rotate(-180.000000) translate(-243.410000, -66.958562) "></path>
            <path d="M450.165,114.914111 L450.545,114.914111 C450.99375,114.914111 451.355,115.058161 451.355,115.421924 C451.355,115.741749 451.12375,115.954149 450.61375,115.954149 C450.3975,115.954149 450.25125,115.929736 450.165,115.912649 L450.165,114.914111 Z M450.145,112.936574 L449.3375,112.936574 L449.3375,116.418024 C449.655,116.483936 450.1025,116.525436 450.67625,116.525436 C451.3325,116.525436 451.62875,116.418024 451.885,116.271536 C452.07625,116.122611 452.225,115.846724 452.225,115.507374 C452.225,115.124074 451.92625,114.826224 451.5025,114.699274 L451.5025,114.657761 C451.84125,114.530811 452.03375,114.274461 452.13875,113.810599 C452.245,113.278374 452.3075,113.065974 452.39625,112.936574 L451.525,112.936574 C451.41875,113.065974 451.355,113.385786 451.2475,113.788624 C451.18625,114.169486 450.9725,114.340386 450.5275,114.340386 L450.145,114.340386 L450.145,112.936574 Z M448,114.765186 C448,113.212449 449.14875,111.984424 450.7175,111.984424 C452.245,111.984424 453.37,113.212449 453.37,114.743211 C453.37,116.291061 452.245,117.543511 450.695,117.543511 C449.14875,117.543511 448,116.291061 448,114.765186 Z M454.2625,114.765186 C454.2625,112.790086 452.71375,111.242237 450.695,111.242237 C448.7025,111.242237 447.1075,112.790086 447.1075,114.765186 C447.1075,116.696336 448.7025,118.246636 450.695,118.246636 C452.71375,118.246636 454.2625,116.696336 454.2625,114.765186 Z" id="path34" fill-rule="nonzero" transform="translate(450.685000, 114.744437) scale(-1, 1) rotate(-180.000000) translate(-450.685000, -114.744437) "></path>
        </g>
    </g>
</svg>